# AST/ASF file generated using VICON BodyLanguage
# -----------------------------------------------
:version 1.10
:name VICON
:units
  mass 1.0
  length 0.45
  angle deg
:documentation
   .ast/.asf automatically generated from VICON data using
   VICON BodyBuilder and BodyLanguage model FoxedUp or BRILLIANT.MOD
:root
   order TX TY TZ RX RY RZ
   axis XYZ
   position 0 0 0  
   orientation 0 0 0 
:bonedata
  begin
     id 1 
     name lhipjoint
     direction 0.630305 -0.712092 0.309259 
     length 2.29033 
     axis 0 0 0  XYZ
  end
  begin
     id 2 
     name lfemur
     direction 0.34202 -0.939693 0  
     length 6.43538  
     axis 0 0 20  XYZ
    dof rx ry rz
    limits (-160.0 20.0)
           (-70.0 70.0)
           (-60.0 70.0)
  end
  begin
     id 3 
     name ltibia
     direction 0.34202 -0.939693 0   
     length 7.43097   
     axis 0 0 20   XYZ
    dof rx
    limits (-10.0 170.0)
  end
  begin
     id 4 
     name lfoot
     direction 0.0334653 -0.0919451 0.995202   
     length 1.78438   
     axis -90 7.62852e-016 20   XYZ
    dof rx rz
    limits (-45.0 90.0)
           (-70.0 20.0)
  end
  begin
     id 5 
     name ltoes
     direction 1.53535e-011 -4.21933e-011 1   
     length 0.90832   
     axis -90 7.62852e-016 20   XYZ
    dof rx
    limits (-90.0 20.0)
  end
  begin
     id 6 
     name rhipjoint
     direction -0.682059 -0.67077 0.291312   
     length 2.43143  
     axis 0 0 0  XYZ 
  end
  begin
     id 7 
     name rfemur
     direction -0.34202 -0.939693 0   
     length 6.63488   
     axis 0 0 -20   XYZ
    dof rx ry rz
    limits (-160.0 20.0)
           (-70.0 70.0)
           (-70.0 60.0)
  end
  begin
     id 8 
     name rtibia
     direction -0.34202 -0.939693 0   
     length 6.86532   
     axis 0 0 -20   XYZ
    dof rx
    limits (-10.0 170.0)
 end
 begin
     id 9 
     name rfoot
     direction -0.105199 -0.289033 0.951521   
     length 1.77126  
     axis -90 -7.62852e-016 -20   XYZ
    dof rx rz
    limits (-45.0 90.0)
           (-20.0 70.0)
  end
  begin
     id 10 
     name rtoes
     direction -1.53551e-011 -4.21978e-011 1   
     length 0.889273   
     axis -90 -7.62852e-016 -20   XYZ
    dof rx
    limits (-90.0 20.0)
  end
  begin
     id 11 
     name lowerback
     direction -0.0514305 0.998089 0.034245   
     length 2.02077   
     axis 0 0 0   XYZ
    dof rx ry rz
    limits (-20.0 45.0)
           (-30.0 30.0)
           (-30.0 30.0)
  end
  begin
     id 12 
     name upperback
     direction 0.0203189 0.999449 -0.0262315   
     length 2.01413   
     axis 0 0 0   XYZ
    dof rx ry rz
    limits (-20.0 45.0)
           (-30.0 30.0)
           (-30.0 30.0)
  end
  begin
     id 13 
     name thorax
     direction 0.0452736 0.998142 -0.0407729   
     length 2.02986   
     axis 0 0 0   XYZ
    dof rx ry rz
    limits (-20.0 45.0)
           (-30.0 30.0)
           (-30.0 30.0)
  end
  begin
     id 14 
     name lowerneck
     direction -0.0180464 0.999645 -0.0195774   
     length 1.59034   
     axis 0 0 0   XYZ
    dof rx ry rz
    limits (-20.0 45.0)
           (-30.0 30.0)
           (-30.0 30.0)
  end
  begin
     id 15 
     name upperneck
     direction 0.0732272 0.979935 -0.18538   
     length 1.57486   
     axis 0 0 0   XYZ
    dof rx ry rz
    limits (-20.0 45.0)
           (-30.0 30.0)
           (-30.0 30.0)
  end
  begin
     id 16
     name head
     direction 0.0252963 0.997909 -0.059472  
     length 1.60334  
     axis 0 0 0   XYZ
    dof rx ry rz
    limits (-20.0 45.0)
           (-30.0 30.0)
           (-30.0 30.0)
  end
  begin
     id 17 
     name lclavicle
     direction 0.943819 0.330449 0.00315172  
     length 3.50322  
     axis 0 0 0   XYZ
    dof ry rz
    limits (-20.0 10.0)
           (0.0 20.0)
  end
  begin
     id 18 
     name lhumerus
     direction 1 -4.48949e-011 2.22502e-028   
     length 4.63208   
     axis 180 -30 -90   XYZ
    dof rx ry rz
    limits (-60.0 90.0)
           (-90.0 90.0)
           (-90.0 90.0)
  end
  begin
     id 19
     name lradius
     direction 1 -4.48967e-011 -4.10197e-027   
     length 3.41924   
     axis 180 -30 -90   XYZ
    dof rx
    limits (-10.0 170.0)
  end
  begin
     id 20
     name lwrist
     direction 1 -4.48987e-011 -1.24264e-027   
     length 1.70962   
     axis 2.50585e-015 90 90   XYZ
    dof ry
    limits (-180.0 0.0)
 end
  begin
     id 21 
     name lhand
     direction 1 -4.48983e-011 -2.48528e-027   
     length 0.62537   
     axis 1.58582e-015 90 90   XYZ
    dof rx rz
    limits (-90.0 90.0)
           (-45.0 45.0)
  end
  begin
     id 22 
     name lfingers
     direction 1 -4.48896e-011 -4.97056e-027   
     length 0.50419   
     axis 3.17164e-015 90 90   XYZ
    dof rx
    limits (0.0 90.0)
  end
  begin
     id 23
     name lthumb
     direction 0.707107 -6.34803e-011 0.707107   
     length 0.723919   
     axis -90 45 2.85299e-015   XYZ
    dof rx rz
    limits (-45.0 45.0)
           (-45.0 45.0)
  end
  begin
     id 24 
     name rclavicle
     direction -0.964499 0.260664 -0.0423695   
     length 3.91997  
     axis 0 0 0   XYZ 
    dof ry rz
    limits (-10.0 20.0)
           (-20.0 0.0)
  end
  begin
     id 25 
     name rhumerus
     direction -1 -4.48957e-011 -1.98656e-027  
     length 4.4064   
     axis 180 30 90   XYZ
    dof rx ry rz
    limits (-90.0 60.0)
           (-90.0 90.0)
           (-90.0 90.0)
  end
  begin
     id 26 
     name rradius
     direction -1 -4.48968e-011 1.96972e-027   
     length 3.44675   
     axis 180 30 90   XYZ
    dof rx
    limits (-10.0 170.0)
  end
  begin
     id 27 
     name rwrist
     direction -1 -4.48974e-011 -1.24264e-027   
     length 1.72338   
     axis 2.50585e-015 -90 -90   XYZ
    dof ry
    limits (-180.0 0.0)
  end
  begin
     id 28
     name rhand
     direction -1 -4.48901e-011 -2.48528e-027   
     length 0.513674   
     axis 1.58582e-015 -90 -90   XYZ
    dof rx rz
    limits (-90.0 90.0)
           (-45.0 45.0)
  end
  begin
     id 29
     name rfingers
     direction -1 -4.48946e-011 -4.97056e-027   
     length 0.414137   
     axis 3.17164e-015 -90 -90   XYZ
    dof rx
    limits (0.0 90.0)
  end
  begin
     id 30
     name rthumb
     direction -0.707107 -6.34859e-011 0.707107   
     length 0.59462   
     axis -90 -45 -2.85299e-015   XYZ
    dof rx rz
    limits (-45.0 45.0)
           (-45.0 45.0)
  end
:hierarchy
  begin
    root lhipjoint rhipjoint lowerback
    lhipjoint lfemur
    lfemur ltibia
    ltibia lfoot
    lfoot ltoes
    rhipjoint rfemur
    rfemur rtibia
    rtibia rfoot
    rfoot rtoes
    lowerback upperback
    upperback thorax
    thorax lowerneck lclavicle rclavicle
    lowerneck upperneck
    upperneck head
    lclavicle lhumerus
    lhumerus lradius
    lradius lwrist
    lwrist lhand lthumb
    lhand lfingers
    rclavicle rhumerus
    rhumerus rradius
    rradius rwrist
    rwrist rhand rthumb
    rhand rfingers
  end

#!OML:ASF E:\inclinewalkrobotboard\Project 1\Capture day 1\Session 1\subject1.ASF
:FULLY-SPECIFIED
:DEGREES
101
root 7.13521 17.0018 3.88186 -145.471 -47.0071 157.645
lowerback 2.76896 1.8819 -2.28468
upperback -4.03981 2.35614 9.10646
thorax -6.34828 1.32892 10.9522
lowerneck -6.70124 0.937842 -5.15586
upperneck -19.776 -0.276693 -1.54486
head -4.90133 -0.316678 0.439612
rclavicle 4.53229e-014 -1.90833e-014
rhumerus 15.4228 -53.2015 -73.9172
rradius 19.1797
rwrist -20.1725
rhand 1.44998 -20.6587
rfingers 7.12502
rthumb 26.9785 -48.7525
lclavicle 4.53229e-014 -1.90833e-014
lhumerus 44.7062 28.192 25.5288
lradius 72.5412
lwrist -17.9168
lhand -48.6233 -30.1738
lfingers 7.12502
lthumb -21.2672 -1.32062
rfemur -28.7845 3.64773 0.393622
rtibia 31.8791
rfoot -1.9564 -6.84199
rtoes -30.3354
lfemur 0.957023 -9.09491 -18.2538
ltibia -9.54166e-015
lfoot 36.5603 25.6798
ltoes -67.7367
102
root 7.14932 16.9933 3.84519 -145.711 -47.0929 157.982
lowerback 2.85362 1.82947 -2.02501
upperback -4.09412 2.29822 9.13172
thorax -6.43128 1.28838 10.831
lowerneck -6.46981 0.927772 -5.26456
upperneck -20.0563 -0.320517 -1.47737
head -5.02652 -0.334053 0.482395
rclavicle -3.97569e-015 5.08889e-014
rhumerus 14.4388 -52.8837 -73.5392
rradius 19.6347
rwrist -20.4875
rhand 1.36378 -20.0758
rfingers 7.12502
rthumb 26.896 -48.1822
lclavicle -3.97569e-015 5.08889e-014
lhumerus 44.8241 28.1267 25.4353
lradius 72.3228
lwrist -17.2668
lhand -48.4922 -29.7383
lfingers 7.12502
lthumb -21.1413 -0.870974
rfemur -28.7495 3.81003 0.796647
rtibia 31.8953
rfoot -2.3512 -6.86612
rtoes -29.1508
lfemur 0.935629 -9.12101 -17.8734
ltibia 0
lfoot 36.6894 25.8
ltoes -67.561
103
root 7.15831 16.9836 3.81397 -145.846 -46.9637 158.103
lowerback 2.928 1.83856 -1.99461
upperback -4.10225 2.31463 9.11511
thorax -6.48385 1.29666 10.792
lowerneck -6.42106 0.949628 -4.85167
upperneck -20.1406 -0.383458 -1.9218
head -5.05853 -0.373986 0.276567
rclavicle -6.67916e-014 4.45278e-014
rhumerus 13.5702 -52.4956 -73.08
rradius 20.0603
rwrist -20.9946
rhand 1.43456 -20.4953
rfingers 7.12502
rthumb 26.9637 -48.5913
lclavicle -6.67916e-014 4.45278e-014
lhumerus 44.5049 28.0558 25.0546
lradius 72.5277
lwrist -16.2787
lhand -48.3926 -29.5305
lfingers 7.12502
lthumb -21.0456 -0.652486
rfemur -28.7021 3.76748 0.955576
rtibia 31.8933
rfoot -2.74882 -6.58976
rtoes -27.5457
lfemur 1.00278 -9.05719 -17.7582
ltibia -1.59028e-014
lfoot 36.7982 25.6526
ltoes -67.2978
104
root 7.16625 16.972 3.78423 -145.796 -46.7423 158.105
lowerback 2.86933 1.84472 -2.14975
upperback -4.13407 2.31443 9.11592
thorax -6.49285 1.30595 10.8883
lowerneck -6.06949 1.0537 -4.51015
upperneck -20.4201 -0.348062 -2.29926
head -5.20229 -0.357652 0.102382
rclavicle -7.4743e-014 1.59028e-014
rhumerus 12.8425 -51.8922 -72.5769
rradius 20.3077
rwrist -21.7593
rhand 1.47704 -21.1134
rfingers 7.12502
rthumb 27.0043 -49.2031
lclavicle -7.4743e-014 1.59028e-014
lhumerus 44.7029 27.8204 25.0518
lradius 72.2474
lwrist -15.8789
lhand -48.1948 -29.3069
lfingers 7.12502
lthumb -20.8556 -0.407825
rfemur -28.7752 3.57381 0.996816
rtibia 31.8873
rfoot -3.06748 -6.27521
rtoes -26.7486
lfemur 0.975664 -8.95907 -17.7499
ltibia 9.54166e-015
lfoot 36.8985 25.5095
ltoes -66.9445
105
root 7.176 16.9611 3.75296 -145.747 -46.5207 158.236
lowerback 2.68656 1.80006 -2.27348
upperback -4.15768 2.23932 9.17674
thorax -6.40738 1.27158 11.0421
lowerneck -5.62879 1.24881 -3.91986
upperneck -20.7254 -0.239822 -2.94691
head -5.36742 -0.308198 -0.201288
rclavicle 6.04305e-014 3.49861e-014
rhumerus 12.3596 -51.2431 -72.4039
rradius 20.4955
rwrist -22.3254
rhand 1.48887 -21.3301
rfingers 7.12502
rthumb 27.0157 -49.418
lclavicle 6.04305e-014 3.49861e-014
lhumerus 44.4099 27.7584 24.652
lradius 72.1312
lwrist -15.6205
lhand -48.0859 -28.8701
lfingers 7.12502
lthumb -20.7509 0.0403518
rfemur -28.9725 3.68717 1.05576
rtibia 31.8877
rfoot -3.36343 -6.21864
rtoes -27.4762
lfemur 0.843996 -8.80563 -17.6334
ltibia -3.18055e-015
lfoot 37.0682 25.5256
ltoes -66.7037
